<svg height="512pt" viewBox="-86 0 512 512.00061" width="512pt" xmlns="http://www.w3.org/2000/svg"><g fill-rule="evenodd"><path d="m10 102h242.523438v-92zm0 0" fill="#b5b5c4"/><path d="m329.496094 102h-221.363282v101.265625c19.597657-4.664063 41.679688-7.082031 61.617188-7.082031 34.347656 0 75.082031 7.160156 98.484375 20.671875 0 78.332031-36.222656 190.960937-98.484375 190.960937-24.9375 0-45.691406-18.074218-61.617188-44.765625v138.949219h221.363282zm0 0" fill="#efeffa"/><path d="m204.648438 198.453125c-24.226563 3.09375-47.835938 9.308594-63.589844 18.402344 0 62.285156 22.902344 146.246093 63.589844 178.039062 40.683593-31.792969 63.585937-115.753906 63.585937-178.039062-15.753906-9.097657-39.359375-15.308594-63.585937-18.402344zm0 0" fill="#c08f7b"/></g><path d="m329.496094 92h-66.972656v-82c0-3.289062-1.613282-6.363281-4.316407-8.230469-2.707031-1.8671872-6.15625-2.285156-9.230469-1.121093l-242.523437 92.003906c-.046875.015625-.085937.039062-.132813.058594-.191406.074218-.382812.160156-.570312.246093-.121094.058594-.242188.113281-.359375.175781-.15625.082032-.308594.171876-.464844.261719-.136719.082031-.277343.164063-.410156.25-.121094.078125-.234375.164063-.351563.246094-.152343.113281-.308593.222656-.453124.339844-.09375.074219-.179688.15625-.269532.234375-.15625.132812-.308594.269531-.453125.414062-.085937.082032-.164062.167969-.242187.253906-.140625.144532-.277344.289063-.402344.445313-.089844.105469-.171875.214844-.257812.324219-.105469.140625-.214844.277344-.3125.421875-.097657.140625-.183594.285156-.273438.429687-.078125.125-.15625.246094-.226562.371094-.09375.167969-.179688.34375-.261719.519531-.054688.109375-.113281.21875-.160157.332031-.082031.183594-.152343.371094-.222656.558594-.042968.113282-.085937.230469-.125.347656-.058594.175782-.105468.351563-.152344.535157-.039062.140625-.078124.28125-.109374.421875-.035157.15625-.0625.3125-.085938.46875-.03125.175781-.0625.355468-.0820312.53125-.015625.132812-.0234376.261718-.0351563.394531-.015625.207031-.0273437.414063-.03125.625 0 .050781-.0078125.09375-.0078125.144531v399.996094c0 5.523438 4.476562 10 10 10h319.5c5.519531 0 10-4.476562 10-10v-399.996094c-.003906-5.527344-4.480469-10.003906-10.003906-10.003906zm-86.972656 0h-177.96875l177.972656-67.511719v67.511719zm-222.523438 400v-25.644531h31.035156c5.519532 0 10-4.476563 10-10 0-5.523438-4.480468-10-10-10h-31.035156v-334.355469h299.5v25.355469h-31.035156c-5.523438 0-10 4.476562-10 10 0 5.523437 4.476562 10 10 10h31.035156v334.644531zm0 0"/><path d="m259.496094 157.359375h.238281c5.519531 0 10-4.476563 10-10s-4.480469-10-10-10h-.238281c-5.519532 0-10 4.476563-10 10s4.476562 10 10 10zm0 0"/><path d="m80 446.355469h-.234375c-5.523437 0-10 4.476562-10 10 0 5.523437 4.476563 10 10 10h.234375c5.523438 0 10-4.476563 10-10 0-5.523438-4.476562-10-10-10zm0 0"/><path d="m273.234375 208.195312c-28.136719-16.246093-73.332031-22.011718-103.484375-22.011718s-75.347656 5.765625-103.488281 22.011718c-3.09375 1.789063-5 5.085938-5 8.660157 0 42.324219 10.253906 91.71875 26.753906 128.910156 9.457031 21.3125 20.597656 38.269531 33.117187 50.410156 14.808594 14.359375 31.167969 21.640625 48.617188 21.640625s33.804688-7.28125 48.617188-21.644531c12.515624-12.136719 23.660156-29.097656 33.113281-50.40625 16.503906-37.191406 26.753906-86.585937 26.753906-128.910156 0-3.574219-1.90625-6.875-5-8.660157zm-103.484375 189.621094c-52.570312 0-86.628906-101.519531-88.414062-174.972656 20.886718-10.074219 55.363281-16.660156 88.414062-16.660156s67.523438 6.585937 88.414062 16.660156c-1.785156 73.453125-35.84375 174.972656-88.414062 174.972656zm0 0"/><path d="m151.117188 285.347656c3.90625-3.90625 3.90625-10.238281 0-14.140625-4.921876-4.921875-11.074219-8.476562-17.800782-10.277343-6.722656-1.800782-13.828125-1.800782-20.550781 0-5.335937 1.429687-8.503906 6.914062-7.074219 12.246093 1.429688 5.335938 6.914063 8.503907 12.25 7.070313 3.335938-.894532 6.863282-.890625 10.199219 0 3.339844.894531 6.394531 2.660156 8.835937 5.101562 1.953126 1.953125 4.511719 2.929688 7.070313 2.929688s5.117187-.976563 7.070313-2.929688zm0 0"/><path d="m197.027344 287.140625c2.558594 0 5.117187-.972656 7.066406-2.925781 2.445312-2.441406 5.5-4.207032 8.835938-5.101563 3.335937-.894531 6.863281-.894531 10.203124 0 5.335938 1.433594 10.816407-1.738281 12.246094-7.070312 1.429688-5.335938-1.738281-10.820313-7.070312-12.246094-6.726563-1.804687-13.832032-1.800781-20.554688 0s-12.875 5.351563-17.800781 10.273437c-3.902344 3.902344-3.90625 10.234376 0 14.140626 1.953125 1.957031 4.511719 2.929687 7.074219 2.929687zm0 0"/><path d="m155.816406 332.714844c-3.90625-3.90625-10.238281-3.90625-14.144531 0s-3.90625 10.238281 0 14.140625c7.5 7.5 17.472656 11.632812 28.078125 11.632812s20.574219-4.132812 28.074219-11.632812c3.90625-3.902344 3.90625-10.234375 0-14.140625s-10.234375-3.90625-14.140625 0c-3.722656 3.722656-8.671875 5.773437-13.933594 5.773437-5.265625 0-10.214844-2.050781-13.933594-5.773437zm0 0"/></svg>