<?xml version="1.0" encoding="iso-8859-1"?>
<!-- Generator: Adobe Illustrator 19.0.0, SVG Export Plug-In . SVG Version: 6.00 Build 0)  -->
<svg version="1.1" id="Capa_1" xmlns="http://www.w3.org/2000/svg" xmlns:xlink="http://www.w3.org/1999/xlink" x="0px" y="0px"
	 viewBox="0 0 512.001 512.001" style="enable-background:new 0 0 512.001 512.001;" xml:space="preserve">
<path style="fill:#CCDFED;" d="M421.052,60.171H90.949c-7.364,0-13.333,5.97-13.333,13.333v417.78
	c0,7.364,5.969,13.333,13.333,13.333h330.103c7.364,0,13.333-5.969,13.333-13.333V73.504
	C434.385,66.141,428.415,60.171,421.052,60.171z M315.723,113.029c0,6.636-5.38,12.016-12.016,12.016h-95.413
	c-6.636,0-12.016-5.38-12.016-12.016v-8.126c0-6.636,5.38-12.016,12.016-12.016h95.413c6.636,0,12.016,5.38,12.016,12.016V113.029z"
	/>
<path style="fill:#9EBECC;" d="M421.052,60.171h-39.87c7.364,0,13.333,5.97,13.333,13.333v417.78c0,7.364-5.97,13.333-13.333,13.333
	h39.87c7.364,0,13.333-5.969,13.333-13.333V73.504C434.385,66.141,428.415,60.171,421.052,60.171z"/>
<path style="fill:#45748C;" d="M292.461,77.109l-29.58,25.216c-3.965,3.38-9.797,3.38-13.762,0l-29.58-25.216
	c-2.364-2.015-3.726-4.965-3.726-8.072V17.99c0-5.858,4.749-10.607,10.607-10.607h59.159c5.858,0,10.607,4.749,10.607,10.607v51.047
	C296.186,72.143,294.826,75.093,292.461,77.109z"/>
<path style="fill:#2D5872;" d="M285.58,7.383H256v97.476c2.449,0,4.899-0.845,6.881-2.535l29.58-25.216
	c2.364-2.015,3.726-4.965,3.726-8.072V17.99C296.186,12.132,291.438,7.383,285.58,7.383z"/>
<path style="fill:#FF4C4C;" d="M375.454,430.321H136.547c-4.54,0-8.22-3.68-8.22-8.22V161.27c0-4.54,3.68-8.22,8.22-8.22h238.907
	c4.54,0,8.22,3.68,8.22,8.22v260.831C383.674,426.641,379.994,430.321,375.454,430.321z"/>
<path style="fill:#ED3737;" d="M375.454,153.05H335.24c4.54,0,8.22,3.68,8.22,8.22v260.831c0,4.54-3.68,8.22-8.22,8.22h40.214
	c4.54,0,8.22-3.68,8.22-8.22v-260.83C383.674,156.731,379.994,153.05,375.454,153.05z"/>
<g>
	<path style="fill:#FFE2C0;" d="M295.077,353.576c-5.801-1.166-9.975-7.896-9.975-13.813v-26.369h-27.479l0,0h-27.479v26.369
		c0,5.917-4.174,12.647-9.975,13.813l-6.696,1.89v44.424h44.149l0,0h44.149v-44.424L295.077,353.576z"/>
	<path style="fill:#FFE2C0;" d="M312.73,254.271h-3.517v-4.13v-9.873c0-13.94-5.723-27.448-16.287-36.544
		c-8.282-7.131-19.924-13.356-35.302-13.527c-15.378,0.172-27.02,6.396-35.303,13.527c-10.564,9.096-16.287,22.604-16.287,36.544
		v9.873v4.13h-3.517c-5.157,0-9.337,4.18-9.337,9.337v10.347c0,5.157,4.18,9.337,9.337,9.337h3.531
		c0.291,13.551,5.985,26.594,16.273,35.452c8.282,7.131,19.924,13.356,35.303,13.527c15.379-0.172,27.021-6.396,35.302-13.527
		c10.287-8.858,15.982-21.901,16.273-35.452h3.531c5.157,0,9.337-4.18,9.337-9.337v-10.347
		C322.067,258.451,317.886,254.271,312.73,254.271z"/>
</g>
<path style="fill:#F4D3A6;" d="M312.73,254.271h-3.517v-4.13v-9.873c0-13.94-5.723-27.448-16.287-36.544
	c-8.282-7.131-19.924-13.356-35.303-13.527c-7.527,0.084-14.154,1.624-19.935,4.005c6.03,2.483,11.139,5.882,15.368,9.522
	c10.564,9.096,16.287,22.604,16.287,36.544l-0.014,43.024c-0.291,13.551-5.985,26.594-16.273,35.452
	c-4.228,3.641-9.338,7.039-15.368,9.522c5.781,2.381,12.407,3.921,19.935,4.005c15.379-0.172,27.021-6.396,35.303-13.527
	c10.287-8.858,15.982-21.901,16.273-35.452h3.531c5.157,0,9.337-4.18,9.337-9.337v-10.347
	C322.067,258.451,317.886,254.271,312.73,254.271z"/>
<path style="fill:#FFBF14;" d="M290.061,187.123h-32.437h-32.437c-14.898,0-26.975,12.077-26.975,26.975v41.225
	c0,0,10.516-0.168,16.058,4.393c1.407,1.158,3.524,0.157,3.524-1.665v-31.766c0-6.066,4.918-10.984,10.984-10.984h6.422
	c2.63,0,5.18,0.91,7.217,2.574l1.594,1.303c2.826,2.31,9.964,3.572,13.614,3.572s10.788-1.262,13.614-3.572l1.594-1.303
	c2.037-1.665,4.586-2.574,7.217-2.574h6.422c6.066,0,10.984,4.918,10.984,10.984v31.766c0,1.822,2.117,2.823,3.524,1.665
	c5.542-4.561,16.058-4.393,16.058-4.393v-41.225C317.035,199.2,304.958,187.123,290.061,187.123z"/>
<path style="fill:#EAA200;" d="M290.061,187.123h-32.438h-7.305c14.898,0,26.975,12.077,26.975,26.975v1.546
	c0.896-0.223,1.819-0.343,2.755-0.343h6.422c6.066,0,10.984,4.918,10.984,10.984v31.766c0,1.822,2.117,2.823,3.524,1.665
	c5.542-4.561,16.058-4.393,16.058-4.393v-41.225C317.035,199.2,304.958,187.123,290.061,187.123z"/>
<path style="fill:#45748C;" d="M375.766,430.321c0.853-37.764-13.71-56.638-34.664-62.807l-38.064-11.868
	c-2.098-0.654-45.413,20.453-45.413,20.453s-43.316-21.107-45.413-20.452l-38.064,11.868c-20.954,6.169-35.517,25.044-37.946,62.807
	h239.564V430.321z"/>
<g>
	<path style="fill:#2D5872;" d="M341.102,367.514l-38.064-11.868c-1.391-0.434-20.898,8.697-33.889,14.901l32.108,10.011
		c18.989,5.591,36.639,11.247,35.604,49.764h38.906C376.618,392.557,362.055,373.683,341.102,367.514z"/>
	<path style="fill:#2D5872;" d="M235.484,387.473l22.139-11.375c0,0-43.316-21.107-45.413-20.452l-14.435,4.501l27.614,25.909
		C228.116,388.614,232.158,389.182,235.484,387.473z"/>
	<path style="fill:#2D5872;" d="M317.472,360.146l-14.435-4.501l0,0c-1.263-0.394-17.459,7.097-30.154,13.123
		c-0.973,0.462-1.924,0.914-2.847,1.355c-2.04,0.973-3.942,1.885-5.611,2.687c-0.512,0.246-1.002,0.482-1.468,0.706
		c-0.699,0.337-1.343,0.648-1.924,0.928c-0.775,0.374-1.437,0.695-1.966,0.952c-0.926,0.449-1.444,0.701-1.444,0.701l22.139,11.375
		c3.326,1.709,7.368,1.142,10.095-1.417L317.472,360.146z"/>
</g>
<path d="M383.674,458.407H193.102c-4.078,0-7.383,3.305-7.383,7.383s3.306,7.383,7.383,7.383h190.572
	c4.078,0,7.383-3.305,7.383-7.383S387.751,458.407,383.674,458.407z"/>
<path d="M158.749,458.407h-30.423c-4.078,0-7.383,3.305-7.383,7.383s3.306,7.383,7.383,7.383h30.423
	c4.078,0,7.383-3.305,7.383-7.383S162.826,458.407,158.749,458.407z"/>
<path d="M375.454,145.667h-41.242c-4.078,0-7.383,3.305-7.383,7.383s3.306,7.383,7.383,7.383h41.242
	c0.461,0,0.837,0.376,0.837,0.837v228.279c-7.844-17.568-21.115-25.575-33.045-29.1l-23.573-7.351c-0.001,0-0.002-0.001-0.003-0.001
	l-2.124-0.662l-12.312-3.839c-0.167-0.052-0.33-0.103-0.495-0.149c-0.502-0.147-0.992-0.254-1.598-0.266l-6.057-1.711
	c-0.182-0.051-0.366-0.096-0.552-0.133c-1.767-0.356-4.046-3.607-4.046-6.575v-11.335c1.79-1.262,3.546-2.617,5.257-4.09
	c9.935-8.554,16.393-20.677,18.278-33.988c7.649-1.532,13.429-8.301,13.429-16.395v-10.347c0-4.582-1.857-8.85-5.031-11.946v-37.564
	c0-18.946-15.413-34.358-34.358-34.358h-64.875c-18.945,0-34.358,15.413-34.358,34.358v37.564
	c-3.174,3.095-5.031,7.363-5.031,11.946v10.347c0,8.094,5.78,14.863,13.43,16.395c1.884,13.311,8.342,25.434,18.277,33.988
	c1.711,1.473,3.467,2.828,5.258,4.091v11.335c0,2.968-2.28,6.219-4.047,6.575c-0.186,0.037-0.37,0.082-0.552,0.133l-6.216,1.755
	c-0.005,0-0.009,0-0.014,0c-0.014,0-0.028,0.001-0.042,0.001c-0.051,0.001-0.101,0.003-0.15,0.006
	c-0.01,0.001-0.02,0.001-0.029,0.002c-0.052,0.003-0.103,0.006-0.152,0.011c-0.007,0.001-0.014,0.001-0.021,0.002
	c-0.053,0.005-0.104,0.01-0.155,0.017c-0.001,0-0.001,0-0.002,0c-0.423,0.053-0.785,0.153-1.155,0.266
	c-0.071,0.022-0.142,0.044-0.213,0.066l-2.639,0.823l-11.796,3.677c-0.003,0.001-0.006,0.003-0.009,0.003l-23.567,7.348
	c-12.649,3.738-22.737,11.351-29.987,22.629c-2.425,3.773-4.525,7.977-6.305,12.584v-234.39c0-0.461,0.375-0.837,0.837-0.837
	h163.312c4.078,0,7.383-3.305,7.383-7.383s-3.306-7.383-7.383-7.383H136.546c-8.604,0-15.603,7-15.603,15.604v260.831
	c0,8.175,6.324,14.89,14.336,15.539c0.304,0.038,0.611,0.064,0.921,0.064h0.347h238.907h0.311c0.308,0,0.61-0.025,0.908-0.062
	c8.034-0.626,14.384-7.35,14.384-15.541V161.271C391.057,152.666,384.057,145.667,375.454,145.667z M302.863,363.324l0.323,0.101
	l-18.38,17.245c-0.449,0.423-1.122,0.516-1.67,0.236l-8.933-4.59l1.845-0.878C293.716,367.053,300.402,364.255,302.863,363.324z
	 M284.042,355.332c-6.385,2.916-14.913,6.964-26.419,12.555c-0.198-0.096-0.39-0.189-0.586-0.285
	c-0.264-0.128-0.525-0.255-0.786-0.381c-0.388-0.188-0.773-0.375-1.154-0.56c-0.275-0.133-0.548-0.266-0.82-0.397
	c-0.361-0.175-0.718-0.348-1.073-0.519c-0.308-0.149-0.613-0.296-0.916-0.443c-0.274-0.132-0.546-0.264-0.816-0.394
	c-0.365-0.176-0.727-0.35-1.084-0.523c-0.244-0.118-0.486-0.234-0.727-0.35c-0.359-0.173-0.715-0.344-1.066-0.513
	c-0.189-0.091-0.377-0.181-0.565-0.271c-0.428-0.205-0.851-0.408-1.268-0.608c-0.106-0.051-0.211-0.101-0.316-0.151
	c-0.446-0.214-0.887-0.425-1.321-0.632c-0.106-0.051-0.212-0.101-0.317-0.151c-0.437-0.209-0.87-0.415-1.295-0.617
	c-0.093-0.044-0.185-0.088-0.277-0.132c-0.408-0.194-0.812-0.386-1.209-0.575c-0.137-0.065-0.271-0.129-0.407-0.193
	c-0.378-0.179-0.753-0.357-1.121-0.531c-0.086-0.041-0.17-0.08-0.255-0.121c-0.416-0.197-0.828-0.391-1.232-0.581
	c-0.028-0.013-0.055-0.026-0.083-0.039c-0.432-0.203-0.859-0.404-1.277-0.6c-0.058-0.027-0.114-0.053-0.171-0.08
	c-0.391-0.183-0.777-0.364-1.156-0.541c-0.063-0.029-0.124-0.058-0.187-0.087c-0.373-0.174-0.743-0.346-1.104-0.515
	c-0.054-0.025-0.107-0.049-0.161-0.075c-0.366-0.17-0.728-0.338-1.082-0.502c-0.049-0.023-0.096-0.044-0.144-0.067
	c-0.354-0.164-0.704-0.325-1.046-0.482c-0.048-0.022-0.093-0.043-0.141-0.065c-0.347-0.159-0.69-0.317-1.025-0.47
	c-0.002-0.001-0.004-0.002-0.006-0.003c-0.076-0.035-0.149-0.068-0.224-0.102c3.698-3.788,6.324-9.208,6.324-15.569v-3.632
	c6.32,2.255,13.001,3.444,20.013,3.522c0.027,0,0.055,0,0.082,0s0.055,0,0.082,0c7.013-0.078,13.694-1.267,20.014-3.522v3.632
	C277.719,346.124,280.344,351.544,284.042,355.332z M205.594,214.098c0-10.803,8.789-19.592,19.591-19.592h64.875
	c10.802,0,19.591,8.789,19.591,19.592v34.438c-1.521,0.253-3.158,0.614-4.816,1.118v-23.37c0-10.128-8.239-18.367-18.367-18.367
	h-6.421c-4.321,0-8.544,1.506-11.889,4.241l-1.533,1.256c-1.191,0.817-5.949,1.953-9.002,1.953c-3.053,0-7.812-1.135-8.941-1.905
	l-1.593-1.301c-3.345-2.736-7.568-4.243-11.89-4.243h-6.421c-10.128,0-18.367,8.239-18.367,18.367v23.37
	c-1.658-0.504-3.295-0.866-4.816-1.12L205.594,214.098L205.594,214.098z M213.429,283.133c-0.086-4.015-3.365-7.225-7.381-7.225
	h-3.532c-1.077,0-1.954-0.877-1.954-1.953v-10.347c0-0.291,0.063-0.551,0.164-0.779c2.07,0.191,4.466,0.611,6.381,1.3
	c0.168,0.061,0.331,0.124,0.491,0.189c0.115,0.046,0.233,0.091,0.343,0.139c0.269,0.12,0.521,0.247,0.758,0.38
	c0.069,0.039,0.136,0.078,0.202,0.118c0.245,0.148,0.478,0.3,0.677,0.463c0.323,0.266,0.663,0.499,1.009,0.717
	c0.068,0.043,0.135,0.087,0.204,0.128c0.338,0.201,0.685,0.381,1.04,0.538c0.067,0.029,0.134,0.054,0.201,0.082
	c0.347,0.143,0.7,0.269,1.059,0.369c0.031,0.009,0.062,0.02,0.093,0.029c0.377,0.101,0.761,0.172,1.146,0.226
	c0.081,0.011,0.162,0.022,0.243,0.032c0.346,0.039,0.694,0.065,1.044,0.065c0.031,0,0.062-0.005,0.093-0.005
	c0.103-0.001,0.207-0.013,0.31-0.017c0.302-0.013,0.603-0.038,0.905-0.08c0.135-0.019,0.27-0.043,0.405-0.068
	c0.284-0.052,0.566-0.119,0.846-0.198c0.123-0.034,0.245-0.064,0.367-0.104c0.394-0.128,0.785-0.274,1.169-0.455
	c3.371-1.592,5.465-4.897,5.465-8.626v-31.767c0-1.985,1.615-3.6,3.601-3.6h6.421c0.924,0,1.828,0.322,2.544,0.908l1.593,1.302
	c5.23,4.276,15.205,5.238,18.287,5.238s13.057-0.962,18.286-5.238l1.595-1.304c0.716-0.585,1.619-0.908,2.543-0.908h6.421
	c1.986,0,3.601,1.615,3.601,3.6v31.767c0,3.729,2.094,7.034,5.465,8.626c0.337,0.159,0.683,0.282,1.028,0.4
	c0.426,0.145,0.856,0.259,1.291,0.342c2.435,0.467,4.941-0.04,7.041-1.452c0.262-0.176,0.526-0.347,0.774-0.551
	c0.205-0.168,0.444-0.326,0.699-0.478c0.049-0.029,0.097-0.058,0.148-0.087c2.007-1.134,5.291-1.796,7.999-2.039
	c0.105,0.232,0.169,0.497,0.169,0.795v10.347c0,1.077-0.876,1.953-1.953,1.953h-3.531c-4.016,0-7.295,3.21-7.381,7.225
	c-0.254,11.791-5.25,22.732-13.71,30.015c-2.139,1.842-4.361,3.464-6.656,4.876c-0.163,0.093-0.326,0.188-0.481,0.293
	c-7.103,4.255-14.922,6.463-23.348,6.57c-8.424-0.107-16.243-2.315-23.346-6.569c-0.159-0.107-0.325-0.205-0.492-0.3
	c-2.292-1.41-4.511-3.03-6.647-4.87C218.679,305.864,213.683,294.924,213.429,283.133z M212.399,363.32
	c0.238,0.089,0.508,0.194,0.79,0.306c0.08,0.031,0.161,0.064,0.244,0.097c0.262,0.105,0.538,0.217,0.833,0.338
	c0.039,0.016,0.073,0.03,0.112,0.046c0.324,0.134,0.672,0.28,1.032,0.433c0.119,0.05,0.241,0.102,0.364,0.154
	c0.307,0.131,0.625,0.267,0.956,0.41c0.085,0.037,0.165,0.071,0.252,0.109c0.388,0.168,0.796,0.347,1.212,0.53
	c0.176,0.077,0.355,0.156,0.536,0.236c0.311,0.138,0.631,0.279,0.956,0.424c0.152,0.068,0.3,0.133,0.455,0.202
	c0.434,0.194,0.884,0.396,1.341,0.601c0.229,0.103,0.463,0.209,0.697,0.314c0.308,0.139,0.622,0.281,0.939,0.425
	c0.24,0.109,0.479,0.217,0.724,0.329c0.452,0.206,0.914,0.417,1.382,0.631c0.268,0.123,0.542,0.248,0.815,0.374
	c0.31,0.142,0.624,0.287,0.94,0.432c0.321,0.148,0.642,0.296,0.969,0.447c0.463,0.214,0.931,0.431,1.405,0.651
	c0.285,0.132,0.573,0.266,0.861,0.4c0.334,0.155,0.671,0.312,1.01,0.47c0.306,0.143,0.611,0.285,0.92,0.43
	c0.532,0.249,1.069,0.5,1.611,0.754c0.325,0.153,0.654,0.307,0.982,0.462c0.303,0.142,0.607,0.286,0.913,0.43
	c0.358,0.168,0.715,0.337,1.076,0.507c0.542,0.256,1.087,0.513,1.634,0.773c0.348,0.165,0.699,0.331,1.049,0.497
	c0.318,0.151,0.636,0.302,0.955,0.454c0.228,0.109,0.457,0.217,0.685,0.326l-8.94,4.594c-0.549,0.28-1.22,0.187-1.669-0.235
	l-18.38-17.245L212.399,363.32z M144.29,422.938c3.26-26.806,13.985-43.055,31.94-48.341c0.037-0.011,0.075-0.022,0.112-0.034
	l19.52-6.086l24.475,22.964c3.073,2.883,7.075,4.387,11.119,4.387c2.523,0,5.062-0.585,7.4-1.786c0-0.001,0.001-0.001,0.001-0.001
	l18.764-9.641l18.766,9.642c2.339,1.201,4.877,1.786,7.4,1.786c4.044,0,8.047-1.505,11.121-4.387l24.475-22.964l19.519,6.087
	c0.038,0.012,0.075,0.023,0.112,0.034c18.565,5.466,28.413,21.713,29.331,48.341H144.29V422.938z"/>
<path d="M421.052,52.788H303.57V17.99C303.57,8.071,295.5,0,285.58,0h-59.16c-9.919,0-17.99,8.071-17.99,17.99v34.798H90.949
	c-11.423,0-20.717,9.294-20.717,20.717v417.779c0,11.423,9.294,20.717,20.717,20.717h330.103c11.423,0,20.716-9.294,20.716-20.717
	V73.504C441.768,62.081,432.475,52.788,421.052,52.788z M223.197,17.99c0-1.778,1.446-3.223,3.223-3.223h59.159
	c1.778,0,3.223,1.446,3.223,3.223v51.047c0,0.945-0.412,1.839-1.132,2.452l0,0l-29.579,25.217c-1.211,1.033-2.971,1.033-4.182-0.001
	l-29.58-25.216c-0.72-0.613-1.132-1.507-1.132-2.452L223.197,17.99L223.197,17.99z M303.707,100.27c2.554,0,4.633,2.078,4.633,4.633
	v8.125c0,2.554-2.078,4.633-4.633,4.633h-95.413c-2.554,0-4.633-2.078-4.633-4.633v-8.125c0-2.554,2.078-4.633,4.633-4.633h27.035
	l9.001,7.673c3.382,2.883,7.526,4.324,11.671,4.324c4.144,0,8.29-1.441,11.671-4.323l9.001-7.674
	C276.673,100.27,303.707,100.27,303.707,100.27z M427.001,491.283c0,3.281-2.669,5.95-5.949,5.95H90.949
	c-3.281,0-5.95-2.669-5.95-5.95V73.504c0-3.281,2.669-5.95,5.95-5.95h117.482v1.482c0,5.277,2.303,10.267,6.319,13.691l3.256,2.775
	h-9.712c-10.697,0-19.399,8.702-19.399,19.399v8.125c0,10.697,8.703,19.399,19.399,19.399h95.413
	c10.697,0,19.399-8.702,19.399-19.399v-8.125c0-10.697-8.703-19.399-19.399-19.399h-9.712l3.256-2.775
	c4.016-3.423,6.32-8.414,6.32-13.691v-1.482h117.482c3.281,0,5.949,2.669,5.949,5.95v417.779H427.001z"/>
<g>
</g>
<g>
</g>
<g>
</g>
<g>
</g>
<g>
</g>
<g>
</g>
<g>
</g>
<g>
</g>
<g>
</g>
<g>
</g>
<g>
</g>
<g>
</g>
<g>
</g>
<g>
</g>
<g>
</g>
</svg>
